<svg xmlns="http://www.w3.org/2000/svg" aria-hidden="true" style="position:absolute;width:0;height:0;overflow:hidden">
  <defs>
    <symbol id="icon-heroicons-burger" viewBox="0 0 29 32">
      <path d="M4.319 8.001c0-.424.152-.831.422-1.131s.636-.469 1.018-.469h17.28c.382 0 .748.169 1.018.469s.422.707.422 1.131-.152.831-.422 1.131c-.27.3-.636.469-1.018.469H5.759c-.382 0-.748-.169-1.018-.469s-.422-.707-.422-1.131zM4.319 16.001c0-.424.152-.831.422-1.131s.636-.469 1.018-.469h17.28c.382 0 .748.169 1.018.469s.422.707.422 1.131c0 .424-.152.831-.422 1.131s-.636.469-1.018.469H5.759c-.382 0-.748-.169-1.018-.469s-.422-.707-.422-1.131zM4.319 24.001c0-.424.152-.831.422-1.131s.636-.469 1.018-.469h17.28c.382 0 .748.169 1.018.469s.422.707.422 1.131c0 .424-.152.831-.422 1.131s-.636.469-1.018.469H5.759c-.382 0-.748-.169-1.018-.469s-.422-.707-.422-1.131z"/>
    </symbol>
  </defs>
</svg>